<svg width="24" height="24" viewBox="0 0 24 24" fill="none" xmlns="http://www.w3.org/2000/svg">
<path d="M21.6458 22.7572C21.7182 22.8329 21.8049 22.8933 21.901 22.935C21.997 22.9767 22.1004 22.9988 22.2051 23C22.3098 23.0011 22.4137 22.9814 22.5107 22.9419C22.6076 22.9024 22.6957 22.8439 22.7698 22.7699C22.8438 22.6958 22.9023 22.6078 22.9419 22.5108C22.9814 22.4139 23.0011 22.31 22.9999 22.2054C22.9988 22.1007 22.9767 21.9973 22.935 21.9013C22.8933 21.8053 22.8328 21.7185 22.7571 21.6462L16.2328 15.1238L15.951 14.8421L15.6858 14.6118C15.5357 14.4829 15.3425 14.4154 15.1448 14.4226C14.9471 14.4299 14.7594 14.5114 14.6192 14.6509C13.3933 15.8673 11.7644 16.593 10.0399 16.6908C8.31547 16.7886 6.61488 16.2518 5.25927 15.1818C3.90367 14.1117 2.98687 12.5826 2.68199 10.883C2.37712 9.18335 2.70527 7.43097 3.60449 5.95672C4.5037 4.48247 5.91174 3.38838 7.56272 2.88105C9.2137 2.37372 10.9934 2.48827 12.5656 3.20306C14.1379 3.91785 15.394 5.18341 16.0967 6.76076C16.7994 8.33812 16.9 10.1181 16.3797 11.7646C16.3487 11.8629 16.3374 11.9664 16.3464 12.0691C16.3554 12.1718 16.3846 12.2717 16.4322 12.3632C16.4798 12.4546 16.545 12.5357 16.6241 12.602C16.7031 12.6682 16.7944 12.7183 16.8927 12.7493C16.9911 12.7802 17.0946 12.7915 17.1973 12.7825C17.3001 12.7735 17.4 12.7444 17.4915 12.6967C17.5829 12.6491 17.6641 12.5839 17.7304 12.5049C17.7966 12.4259 17.8467 12.3347 17.8777 12.2363C18.5033 10.255 18.3934 8.11462 17.5683 6.2077C16.7432 4.30078 15.258 2.75513 13.3853 1.85421C11.5126 0.95328 9.3777 0.757458 7.37223 1.30265C5.36676 1.84785 3.6251 3.09751 2.46664 4.82249C1.30817 6.54746 0.810549 8.63212 1.06503 10.6942C1.31951 12.7562 2.30903 14.6575 3.85213 16.0492C5.39524 17.441 7.38849 18.23 9.46637 18.2716C11.5443 18.3131 13.5675 17.6045 15.165 16.2755L21.6458 22.7572Z" fill="#B6B6B6"/>
<path d="M14.6192 14.6509C14.7594 14.5114 14.9471 14.4299 15.1448 14.4226C15.3425 14.4154 15.5357 14.4829 15.6858 14.6118L15.951 14.8421L16.2328 15.1238M14.6192 14.6509C13.3933 15.8673 11.7644 16.593 10.0399 16.6908C8.31547 16.7886 6.61488 16.2518 5.25927 15.1818C3.90367 14.1117 2.98687 12.5826 2.68199 10.883C2.37712 9.18335 2.70527 7.43097 3.60449 5.95672C4.5037 4.48247 5.91174 3.38838 7.56272 2.88105C9.2137 2.37372 10.9934 2.48827 12.5656 3.20306C14.1379 3.91785 15.394 5.18341 16.0967 6.76076C16.7994 8.33812 16.9 10.1181 16.3797 11.7646M14.6192 14.6509C15.035 14.124 15.9692 12.809 16.3797 11.7646M14.6192 14.6509L16.2328 15.1238M16.3797 11.7646C16.3487 11.8629 16.3374 11.9664 16.3464 12.0691C16.3554 12.1718 16.3846 12.2717 16.4322 12.3632C16.4798 12.4546 16.545 12.5357 16.6241 12.602C16.7031 12.6682 16.7944 12.7183 16.8927 12.7493C16.9911 12.7802 17.0946 12.7915 17.1973 12.7825C17.3001 12.7735 17.4 12.7444 17.4915 12.6967C17.5829 12.6491 17.6641 12.5839 17.7304 12.5049M16.3797 11.7646L17.7304 12.5049M17.7304 12.5049C17.7966 12.4259 17.8467 12.3347 17.8777 12.2363M17.8777 12.2363C18.5033 10.255 18.3934 8.11462 17.5683 6.2077C16.7432 4.30078 15.258 2.75513 13.3853 1.85421C11.5126 0.95328 9.3777 0.757458 7.37223 1.30265C5.36676 1.84785 3.6251 3.09751 2.46664 4.82249C1.30817 6.54746 0.810549 8.63212 1.06503 10.6942C1.31951 12.7562 2.30903 14.6575 3.85213 16.0492C5.39524 17.441 7.38849 18.23 9.46637 18.2716C11.5443 18.3131 13.5675 17.6045 15.165 16.2755L21.6458 22.7572C21.7182 22.8329 21.8049 22.8933 21.901 22.935C21.997 22.9767 22.1004 22.9988 22.2051 23C22.3098 23.0011 22.4137 22.9814 22.5107 22.9419C22.6076 22.9024 22.6957 22.8439 22.7698 22.7699C22.8438 22.6958 22.9023 22.6078 22.9419 22.5108C22.9814 22.4139 23.0011 22.31 22.9999 22.2054C22.9988 22.1007 22.9767 21.9973 22.935 21.9013C22.8933 21.8053 22.8328 21.7185 22.7571 21.6462L16.2328 15.1238M17.8777 12.2363C17.6179 12.8426 16.9253 14.2688 16.2328 15.1238M16.2625 12.5049L15.9171 13.4433V13.9932M15.9171 13.9932C15.3671 13.9932 15.3015 13.9662 15.2869 13.9932M15.9171 13.9932L16.3464 14.0447M15.9171 13.9932V14.543M15.9171 13.9932L16.0492 13.7833L16.1868 13.8177L15.2869 14.2167M15.2869 13.9932L16.6241 11.5264L17.8777 11.909L16.3797 14.6601M15.2869 13.9932L15.1448 14.2552L16.2328 14.9299L16.3797 14.6601M15.3671 14.2552C15.3671 14.543 15.2729 14.3022 15.595 14.4226C15.8527 14.5189 15.9171 14.543 15.9171 14.543M15.9171 14.543C15.9543 14.4471 16.0437 14.2552 16.1043 14.2552C16.2071 14.3891 16.2022 14.5488 16.1868 14.6118C16.1868 14.6431 16.2328 14.6509 16.0492 14.6509C16.1594 14.789 16.3797 14.9841 16.3797 14.6601M15.9171 14.543L15.54 13.914L16.5584 12.7493L16.3464 12.4005V12.6413L16.2625 12.8935H17.0171M16.4322 13.914C16.4322 13.881 16.9423 13.2199 17.1973 12.8935H17.0171M17.0171 12.8935L16.6241 13.1091L16.4671 13.4433L16.0492 13.5838L16.1868 13.6664L16.3464 13.7145M16.4322 13.1091L16.2328 13.2742L16.3062 13.8484M16.3062 13.8484L16.3797 14.4226L16.5584 14.0929L17.0171 13.9932L16.3062 13.8484Z" stroke="#B6B6B6" stroke-width="0.3"/>
</svg>
